HIERARCHY
ROOT Hips
{
  OFFSET 1.44925e-005 102.336 -0.101585
  CHANNELS 6 Xposition Yposition Zposition Zrotation Xrotation Yrotation
  JOINT LeftUpLeg
  {
    OFFSET 8.9458 -8.66707 0.101652
    CHANNELS 3 Zrotation Xrotation Yrotation
    JOINT LeftLeg
    {
      OFFSET 0 -44.4227 1.3727
      CHANNELS 3 Zrotation Xrotation Yrotation
      JOINT LeftFoot
      {
        OFFSET -0.253549 -42.0924 -1.46059
        CHANNELS 3 Zrotation Xrotation Yrotation
        JOINT LeftToes
        {
          OFFSET -0.04 -4.41509 8.4991
          CHANNELS 3 Zrotation Xrotation Yrotation
          End Site
          {
            OFFSET 0.08 -0.047448 9.77979
          }
        }
      }
    }
  }
  JOINT Spine
  {
    OFFSET 0 11.8905 0
    CHANNELS 3 Zrotation Xrotation Yrotation
    JOINT Spine1
    {
      OFFSET 0 25.6574 0.127663
      CHANNELS 3 Zrotation Xrotation Yrotation
      JOINT RightShoulder
      {
        OFFSET -8.99 -0.362252 -0.22
        CHANNELS 3 Zrotation Xrotation Yrotation
        JOINT RightArm
        {
          OFFSET -10.2827 -0.00338 0.322123
          CHANNELS 3 Zrotation Xrotation Yrotation
          JOINT RightForeArm
          {
            OFFSET -26.364 0.099144 -1.42434
            CHANNELS 3 Zrotation Xrotation Yrotation
            JOINT RightHand
            {
              OFFSET -22.0324 0.085362 1.02216
              CHANNELS 3 Zrotation Xrotation Yrotation
              End Site
              {
                OFFSET -13.3284 -0.6 1.50291
              }
            }
          }
        }
      }
      JOINT LeftShoulder1
      {
        OFFSET 8.99 -0.362252 -0.22
        CHANNELS 3 Zrotation Xrotation Yrotation
        JOINT LeftArm
        {
          OFFSET 10.2827 -0.00337999 0.322123
          CHANNELS 3 Zrotation Xrotation Yrotation
          JOINT LeftForeArm
          {
            OFFSET 26.2597 0.099144 -1.42434
            CHANNELS 3 Zrotation Xrotation Yrotation
            JOINT LeftHand
            {
              OFFSET 22.0902 0.085362 1.02216
              CHANNELS 3 Zrotation Xrotation Yrotation
              End Site
              {
                OFFSET 13.419 -0.6 1.50291
              }
            }
          }
        }
      }
      JOINT Head
      {
        OFFSET 0 8.73416 0.011341
        CHANNELS 3 Zrotation Xrotation Yrotation
        End Site
        {
          OFFSET -0.29 12.7742 2.51395
        }
      }
    }
  }
  JOINT RightUpLeg
  {
    OFFSET -8.9458 -8.66707 0.101652
    CHANNELS 3 Zrotation Xrotation Yrotation
    JOINT RightLeg
    {
      OFFSET 0 -44.4227 1.3727
      CHANNELS 3 Zrotation Xrotation Yrotation
      JOINT RightFoot
      {
        OFFSET 0.253549 -42.0924 -1.46059
        CHANNELS 3 Zrotation Xrotation Yrotation
        JOINT RightToes
        {
          OFFSET 0.04 -4.41509 8.4991
          CHANNELS 3 Zrotation Xrotation Yrotation
          End Site
          {
            OFFSET -0.08 -0.137448 9.77979
          }
        }
      }
    }
  }
}
MOTION
Frames:	21
Frame Time:	0.0333333
188.591 103.079 7.84943 -3.51109 -0.480272 -91.199 -1.51305 1.81765 1.66731 0.0192489 8.23993 19.4139 -2.59537 -11.0677 -0.0276767 -1.35524e-009 8.75216e-006 -1.4693e-008 1.24492 9.14579 -0.102717 -1.08384 -2.09589 0.216214 35.3363 1.72158 0.10339 44.6462 -19.0084 10.384 9.28498 42.9 5.57237 -10.1933 9.41302 0.552664 -44.3554 3.56572 -3.47362 -29.2762 -14.7968 -1.18318 -5.9253 37.6269 -12.499 5.82328 9.61819 -0.917488 -1.3878 -7.4601 -3.18145 -0.51483 2.38583 -3.94921 -0.0192123 10.2536 -11.3357 3.2226 -13.4349 -0.0466774 0.0462048 0.000530889 0.662642 
188.559 103.079 7.848 -3.48953 -0.479966 -91.2217 -1.51582 1.84805 1.66257 0.0192585 8.18 19.4301 -2.57262 -11.0842 -0.0276783 -1.35524e-009 8.75216e-006 -1.4693e-008 1.23898 9.25854 -0.127735 -1.08446 -2.32232 0.189597 35.3437 1.72158 0.104111 44.6154 -18.8853 10.2975 9.30891 42.5852 5.61776 -10.1892 9.4325 0.310411 -44.3036 3.55841 -3.47359 -29.2946 -14.874 -1.04178 -5.94455 37.6578 -12.4612 5.82328 9.61819 -0.917488 -0.443089 -6.63281 -2.77763 -0.507314 2.3749 -3.93318 -0.0341868 10.2681 -11.3314 3.223 -13.4607 -0.0466824 0.0462048 0.000530889 0.662642 
188.495 103.079 7.84184 -3.44642 -0.485842 -91.289 -1.52568 1.88496 1.65482 0.0209498 8.10675 19.4994 -2.56585 -11.0976 -0.0276796 -1.35524e-009 8.75216e-006 -1.4693e-008 1.24873 9.41322 -0.171737 -1.14354 -2.65516 0.152743 35.4107 1.72158 0.107784 44.5428 -18.6962 10.2046 9.35153 42.1953 5.66746 -10.2318 9.44472 0.130276 -44.1596 3.54442 -3.47505 -29.3716 -14.9757 -0.790748 -6.00495 37.5114 -12.4039 5.82328 9.61819 -0.917488 0.323279 -5.89758 -2.54949 -0.504812 2.36095 -3.91675 -0.0550079 10.2702 -11.277 3.21981 -13.4911 -0.0466883 0.0462048 0.000530889 0.662642 
188.425 103.079 7.83518 -3.41673 -0.489389 -91.3741 -1.53328 1.91991 1.66206 0.0174611 8.07592 19.5821 -2.5742 -11.1118 -0.0276809 -1.35524e-009 8.75216e-006 -1.4693e-008 1.23099 9.43756 -0.186331 -1.14622 -2.73941 0.136459 35.4237 1.72158 0.115311 44.5293 -18.5738 10.2078 9.31247 42.1377 5.75964 -10.278 9.42401 0.36176 -44.0956 3.54222 -3.48175 -29.4157 -14.9246 -0.644846 -6.0023 37.1722 -12.4697 5.82328 9.61819 -0.917488 0.19129 -5.89382 -2.75342 -0.501215 2.37608 -3.90485 -0.0800779 10.2448 -11.1966 3.20352 -13.5089 -0.0466918 0.0462048 0.000530889 0.662642 
188.362 103.079 7.83122 -3.40166 -0.482852 -91.4467 -1.52152 1.9612 1.69028 8.83278e-005 8.05331 19.629 -2.57237 -11.1288 -0.0276825 -1.35524e-009 8.75216e-006 -1.4693e-008 1.17331 9.33324 -0.175973 -1.0492 -2.59713 0.129048 35.3487 1.72263 0.128562 44.5934 -18.537 10.2702 9.20316 42.4628 5.8659 -10.2459 9.38197 0.907578 -44.1712 3.55113 -3.48479 -29.3741 -14.759 -0.631215 -5.86031 36.9318 -12.691 5.82328 9.61819 -0.917488 -0.0224399 -6.00448 -2.90499 -0.490076 2.4156 -3.89125 -0.102916 10.1984 -11.1364 3.19848 -13.5141 -0.0466928 0.0462048 0.000530889 0.662642 
188.303 103.081 7.82801 -3.36657 -0.473285 -91.5083 -1.49761 1.99383 1.72506 -0.0292418 7.99562 19.6512 -2.56056 -11.1391 -0.0276835 -1.35524e-009 8.75216e-006 -1.4693e-008 1.15167 9.26544 -0.19125 -1.01391 -2.56045 0.106241 35.3034 1.72732 0.144251 44.6763 -18.5848 10.3116 9.16382 42.9318 5.83819 -10.1798 9.34925 1.36364 -44.1887 3.54999 -3.48005 -29.365 -14.7201 -0.594852 -5.65987 37.0213 -12.905 5.82328 9.61819 -0.917488 0.171374 -5.93141 -2.78863 -0.476264 2.43214 -3.8686 -0.117945 10.1518 -11.1043 3.21716 -13.513 -0.0466926 0.0462048 0.000530889 0.662642 
188.241 103.084 7.8206 -3.31183 -0.472985 -91.5656 -1.48217 2.00968 1.75277 -0.0566586 7.93171 19.6792 -2.55613 -11.1473 -0.0276843 -1.35524e-009 8.75216e-006 -1.4693e-008 1.22199 9.38464 -0.244988 -1.16924 -2.83054 0.0771561 35.3625 1.73279 0.152141 44.7353 -18.7183 10.2728 9.22954 43.2826 5.67032 -10.1768 9.34147 1.4643 -43.9731 3.52921 -3.47166 -29.5204 -14.8766 -0.434961 -5.52837 37.3012 -12.9835 5.82328 9.61819 -0.917488 0.0649395 -6.22925 -2.87591 -0.465278 2.42431 -3.83919 -0.12666 10.1145 -11.0822 3.23642 -13.5171 -0.0466934 0.0462048 0.000530889 0.662642 
188.17 103.087 7.80885 -3.28137 -0.484148 -91.6019 -1.4841 2.03984 1.77294 -0.0709922 7.90161 19.7044 -2.5583 -11.1621 -0.0276857 -1.35524e-009 8.75216e-006 -1.4693e-008 1.32244 9.69445 -0.2993 -1.40602 -3.33906 0.060041 35.4851 1.73608 0.149035 44.7124 -18.8529 10.0941 9.2819 43.4002 5.55399 -10.23 9.35274 1.28387 -43.6258 3.50081 -3.46754 -29.7738 -14.989 -0.168026 -5.46068 37.4233 -13.0206 5.82328 9.61819 -0.917488 -0.692407 -6.93447 -3.36043 -0.461904 2.45591 -3.82446 -0.134841 10.068 -11.0576 3.23161 -13.5315 -0.0466962 0.0462048 0.000530889 0.662642 
188.091 103.09 7.79941 -3.27826 -0.499349 -91.6053 -1.49614 2.10084 1.7851 -0.076469 7.87229 19.7098 -2.54379 -11.1687 -0.0276863 -1.35524e-009 8.75216e-006 -1.4693e-008 1.3406 10.0222 -0.329702 -1.51246 -3.88123 0.0420395 35.6085 1.74023 0.147902 44.5707 -18.9101 9.81439 9.30169 43.378 5.51934 -10.29 9.36933 1.0343 -43.3908 3.48042 -3.46059 -29.9358 -14.8785 0.145413 -5.36259 37.2476 -13.1679 5.82328 9.61819 -0.917488 -1.14526 -7.09305 -3.56224 -0.4736 2.5378 -3.84371 -0.133577 9.99935 -11.0288 3.20982 -13.5441 -0.0466987 0.0462048 0.000530889 0.662642 
188.018 103.092 7.79682 -3.25061 -0.511291 -91.5937 -1.50738 2.14578 1.7845 -0.0839963 7.80488 19.712 -2.5013 -11.1497 -0.0276845 -1.35524e-009 8.75216e-006 -1.4693e-008 1.23299 10.0978 -0.339337 -1.3907 -4.13068 0.00514971 35.6448 1.74705 0.160976 44.4579 -18.9838 9.68026 9.40082 43.4716 5.35286 -10.3664 9.37687 0.888387 -43.4088 3.47995 -3.45928 -29.912 -14.6839 0.355459 -5.2347 36.9394 -13.3841 5.82328 9.61819 -0.917488 -0.705489 -6.39201 -3.05281 -0.49738 2.58751 -3.88026 -0.105931 9.93452 -11.006 3.18542 -13.5386 -0.0466976 0.0462048 0.000530889 0.662642 
187.968 103.094 7.7971 -3.1859 -0.517085 -91.5805 -1.51248 2.12909 1.77467 -0.0927641 7.74884 19.7223 -2.45819 -11.1234 -0.027682 -1.35524e-009 8.75216e-006 -1.4693e-008 1.05299 9.80342 -0.324986 -1.10252 -3.80901 -0.0333716 35.4907 1.7492 0.18005 44.5921 -19.1847 9.89397 9.54937 43.7926 5.0455 -10.4138 9.37091 0.930355 -43.6482 3.5053 -3.47342 -29.7643 -14.5967 0.263022 -5.1678 36.704 -13.5132 5.82328 9.61819 -0.917488 -0.297178 -5.82437 -2.56316 -0.515902 2.56082 -3.89997 -0.0755012 9.9102 -11.0122 3.15314 -13.5192 -0.0466938 0.0462048 0.000530889 0.662642 
187.936 103.095 7.79807 -3.13885 -0.518074 -91.5497 -1.51297 2.0826 1.76621 -0.0916463 7.76965 19.7138 -2.4551 -11.12 -0.0276817 -1.35524e-009 8.75216e-006 -1.4693e-008 0.894926 9.3659 -0.28405 -0.803135 -3.11355 -0.0447406 35.2022 1.74058 0.185483 44.9028 -19.4031 10.2716 9.5632 44.0643 4.91329 -10.284 9.37098 1.0176 -43.9627 3.54612 -3.5066 -29.5953 -14.5574 -0.0960015 -5.18634 36.5699 -13.5269 5.82328 9.61819 -0.917488 -0.595251 -6.00021 -2.7554 -0.522577 2.52204 -3.90563 -0.0536202 9.92967 -11.0534 3.10914 -13.5087 -0.0466917 0.0462048 0.000530889 0.662642 
187.902 103.097 7.79716 -3.13744 -0.520115 -91.4928 -1.51622 2.06749 1.75944 -0.0780501 7.82953 19.6724 -2.48819 -11.1348 -0.0276831 -1.35524e-009 8.75216e-006 -1.4693e-008 0.814365 9.11885 -0.239359 -0.630639 -2.62098 -0.0300055 34.9982 1.72853 0.174862 45.0926 -19.5134 10.4557 9.43304 43.9758 5.05546 -9.98929 9.4035 0.809172 -44.1862 3.57496 -3.52949 -29.4636 -14.4512 -0.421648 -5.23186 36.4959 -13.5051 5.82328 9.61819 -0.917488 -0.859415 -6.22844 -3.16142 -0.533947 2.5262 -3.93247 -0.0235396 9.97265 -11.0983 3.0668 -13.5209 -0.0466941 0.0462048 0.000530889 0.662642 
187.86 103.098 7.79337 -3.1429 -0.527224 -91.4366 -1.52673 2.08984 1.74757 -0.0630374 7.84045 19.6313 -2.50367 -11.1428 -0.0276839 -1.35524e-009 8.75216e-006 -1.4693e-008 0.785942 9.10481 -0.213422 -0.589015 -2.56715 -0.0112599 34.9576 1.7238 0.167707 45.1118 -19.6227 10.4206 9.36517 43.7065 5.14521 -9.82251 9.45367 0.272122 -44.2484 3.57579 -3.52169 -29.4024 -14.39 -0.546696 -5.28322 36.5169 -13.4514 5.82328 9.61819 -0.917488 -0.382269 -5.9502 -3.04081 -0.556799 2.54177 -3.98044 0.0152534 10.0186 -11.12 3.03455 -13.5458 -0.046699 0.0462048 0.000530889 0.662642 
187.818 103.099 7.78887 -3.12593 -0.535644 -91.4065 -1.53836 2.11394 1.73463 -0.055469 7.79857 19.6167 -2.4723 -11.1446 -0.027684 -1.35524e-009 8.75216e-006 -1.4693e-008 0.749365 9.11849 -0.198265 -0.56905 -2.62546 -0.00027796 34.9304 1.72295 0.172276 45.181 -19.8242 10.4288 9.41963 43.692 5.01316 -9.98578 9.47115 -0.0591091 -44.2155 3.56446 -3.50453 -29.4195 -14.5169 -0.606596 -5.36855 36.6378 -13.3206 5.82328 9.61819 -0.917488 0.275477 -5.63202 -2.57151 -0.569471 2.53821 -4.00317 0.0307917 10.0436 -11.1361 3.01041 -13.561 -0.046702 0.0462048 0.000530889 0.662642 
187.788 103.1 7.78593 -3.10579 -0.539493 -91.3895 -1.54194 2.12092 1.73057 -0.0528149 7.7723 19.6071 -2.43455 -11.1436 -0.0276839 -1.35524e-009 8.75216e-006 -1.4693e-008 0.705205 9.06883 -0.185675 -0.53515 -2.52295 0.00530244 34.8625 1.72392 0.172134 45.3111 -19.893 10.5524 9.43678 43.8653 4.94989 -10.2991 9.43473 0.214314 -44.1672 3.55978 -3.50121 -29.4817 -14.7187 -0.72635 -5.46476 36.7558 -13.1704 5.82328 9.61819 -0.917488 0.450206 -5.68761 -2.36571 -0.558416 2.54155 -3.98252 0.0129707 10.0307 -11.1737 3.00163 -13.5562 -0.0467011 0.0462048 0.000530889 0.662642 
187.769 103.101 7.78466 -3.09451 -0.540674 -91.3648 -1.53987 2.11044 1.73196 -0.0524573 7.7885 19.581 -2.43715 -11.1409 -0.0276837 -1.35524e-009 8.75216e-006 -1.4693e-008 0.71086 9.06084 -0.189685 -0.575525 -2.42913 0.00789925 34.9126 1.72564 0.161028 45.2506 -19.6168 10.6045 9.34013 43.7463 5.18308 -10.4686 9.38855 0.678772 -44.1019 3.55693 -3.50017 -29.5398 -14.7916 -0.812806 -5.49294 36.8203 -13.1188 5.82328 9.61819 -0.917488 0.44606 -5.75276 -2.45515 -0.545291 2.55853 -3.95921 -0.00202546 10.0011 -11.2183 3.01377 -13.547 -0.0466993 0.0462048 0.000530889 0.662642 
187.757 103.102 7.78424 -3.07396 -0.545095 -91.3439 -1.54286 2.08365 1.72762 -0.0566552 7.81013 19.5599 -2.46475 -11.1376 -0.0276834 -1.35524e-009 8.75216e-006 -1.4693e-008 0.767822 9.1408 -0.208168 -0.706351 -2.52955 0.012292 35.1102 1.72701 0.151539 44.989 -19.2271 10.5273 9.24081 43.302 5.48641 -10.4212 9.39351 0.647578 -44.02 3.54736 -3.50043 -29.5668 -14.7473 -0.781712 -5.42735 36.9144 -13.1786 5.82328 9.61819 -0.917488 0.705191 -5.51821 -2.44569 -0.55176 2.54915 -3.96397 0.00858231 9.99547 -11.2371 3.03032 -13.5572 -0.0467013 0.0462048 0.000530889 0.662642 
187.75 103.103 7.78446 -3.04264 -0.551048 -91.3488 -1.54669 2.0549 1.72256 -0.0578634 7.80938 19.5675 -2.47814 -11.1349 -0.0276831 -1.35524e-009 8.75216e-006 -1.4693e-008 0.80527 9.20667 -0.209542 -0.803783 -2.66922 0.02745 35.2295 1.72707 0.151117 44.8476 -19.1374 10.4799 9.19508 43.0706 5.59404 -10.2309 9.44441 0.13439 -43.9794 3.53966 -3.50152 -29.5687 -14.7325 -0.726722 -5.33375 37.0765 -13.255 5.82328 9.61819 -0.917488 0.972691 -5.28487 -2.26726 -0.562413 2.51117 -3.96931 0.0156241 10.0119 -11.2357 3.03676 -13.5797 -0.0467057 0.0462048 0.000530889 0.662642 
187.741 103.104 7.78512 -3.02603 -0.552065 -91.3662 -1.54803 2.04849 1.72162 -0.0566186 7.79701 19.5839 -2.4772 -11.1338 -0.027683 -1.35524e-009 8.75216e-006 -1.4693e-008 0.794134 9.19295 -0.186522 -0.803639 -2.65769 0.0500894 35.1539 1.72398 0.149776 44.9643 -19.3257 10.525 9.11906 43.2278 5.61545 -9.95533 9.48974 -0.279565 -43.9974 3.54116 -3.50294 -29.5651 -14.7762 -0.733717 -5.28935 37.1956 -13.2795 5.82328 9.61819 -0.917488 0.917325 -5.28789 -2.16224 -0.554173 2.49721 -3.9473 -0.00619566 10.0107 -11.2456 3.04097 -13.5847 -0.0467067 0.0462048 0.000530889 0.662642 
187.728 103.104 7.78601 -3.03328 -0.549297 -91.362 -1.54518 2.06668 1.72666 -0.0540274 7.79097 19.5761 -2.48172 -11.1353 -0.0276832 -1.35524e-009 8.75216e-006 -1.4693e-008 0.783719 9.15456 -0.173408 -0.794609 -2.56891 0.0622417 35.0594 1.71673 0.14006 45.1056 -19.4183 10.5464 8.99285 43.342 5.74571 -9.72146 9.5035 -0.324749 -44.0112 3.54552 -3.50418 -29.5662 -14.7984 -0.739905 -5.3049 37.1712 -13.2648 5.82328 9.61819 -0.917488 0.742128 -5.30887 -2.19904 -0.539048 2.52746 -3.92717 -0.0276346 9.98542 -11.2659 3.04436 -13.5747 -0.0467047 0.0462048 0.000530889 0.662642 
